<svg width="800" height="566" xmlns="http://www.w3.org/2000/svg">
 <!-- Created with Method Draw - http://github.com/duopixel/Method-Draw/ -->
 <defs>
  <style>.pattern-1-a,.pattern-1-b{fill:none;}.pattern-1-b{stroke:#000;stroke-miterlimit:10;stroke-width:2.83465px;}.c{fill:url(#pattern-1-a);}</style>
  <pattern viewBox="0 0 11.339 11.339" patternUnits="userSpaceOnUse" height="11.33858" width="11.33858" id="pattern-0" patternTransform="scale(2)">
   <rect height="11.33858" width="11.33858" class="pattern-1-a"/>
   <path d="m11.19532,17.00784l5.81257,0l-0.00007,-6.125" class="pattern-1-b"/>
   <path d="m-0.14326,17.00784l5.81257,0l-0.00007,-6.125" class="pattern-1-b"/>
   <path d="m11.19532,5.66926l5.81257,0l-0.00007,-6.125" class="pattern-1-b"/>
   <path d="m-0.14326,5.66926l5.81257,0l-0.00007,-6.125" class="pattern-1-b"/>
   <path d="m11.48188,5.66926l-5.81257,0l0.00007,6.125" class="pattern-1-b"/>
   <path d="m0.1433,5.66926l-5.81257,0l0.00007,6.125" class="pattern-1-b"/>
   <path d="m11.48188,-5.66932l-5.81257,0l0.00007,6.125" class="pattern-1-b"/>
   <path d="m0.1433,-5.66932l-5.81257,0l0.00007,6.125" class="pattern-1-b"/>
  </pattern>
  <style>.pattern-2-a,.pattern-2-b{fill:none;}.pattern-2-b{stroke:#000;stroke-miterlimit:10;stroke-width:5.6692913385826px;}.pattern-2-c{fill:url(#a);}</style>
  <pattern viewBox="0 0 65.5 56.693" patternUnits="userSpaceOnUse" height="56.69291" width="65.49987" id="pattern-1">
   <rect height="56.69291" width="65.49987" class="pattern-2-a"/>
   <path d="m65.49992,53.57477c-5.45551,0 -5.45551,-5.10236 -10.911,-5.10236c-5.45692,0 -5.45692,5.10236 -10.91384,5.10236c-5.45882,0 -5.45882,-5.10236 -10.91763,-5.10236c-5.45709,0 -5.45709,5.10236 -10.91417,5.10236c-5.46084,0 -5.46084,-5.10236 -10.92167,-5.10236s-5.46086,5.10236 -10.92169,5.10236" class="pattern-2-b"/>
   <path d="m65.49992,42.23619c-5.45551,0 -5.45551,-5.10236 -10.911,-5.10236c-5.45692,0 -5.45692,5.10236 -10.91384,5.10236c-5.45882,0 -5.45882,-5.10236 -10.91763,-5.10236c-5.45709,0 -5.45709,5.10236 -10.91417,5.10236c-5.46084,0 -5.46084,-5.10236 -10.92167,-5.10236s-5.46086,5.10236 -10.92169,5.10236" class="pattern-2-b"/>
   <path d="m65.49992,30.8976c-5.45551,0 -5.45551,-5.10236 -10.911,-5.10236c-5.45692,0 -5.45692,5.10236 -10.91384,5.10236c-5.45882,0 -5.45882,-5.10236 -10.91763,-5.10236c-5.45709,0 -5.45709,5.10236 -10.91417,5.10236c-5.46084,0 -5.46084,-5.10236 -10.92167,-5.10236s-5.46086,5.10236 -10.92169,5.10236" class="pattern-2-b"/>
   <path d="m65.49992,19.559c-5.45551,0 -5.45551,-5.10236 -10.911,-5.10236c-5.45692,0 -5.45692,5.10236 -10.91384,5.10236c-5.45882,0 -5.45882,-5.10236 -10.91763,-5.10236c-5.45709,0 -5.45709,5.10236 -10.91417,5.10236c-5.46084,0 -5.46084,-5.10236 -10.92167,-5.10236s-5.46086,5.10236 -10.92169,5.10236" class="pattern-2-b"/>
   <path d="m65.49992,8.22044c-5.45551,0 -5.45551,-5.10236 -10.911,-5.10236c-5.45692,0 -5.45692,5.10236 -10.91384,5.10236c-5.45882,0 -5.45882,-5.10236 -10.91763,-5.10236c-5.45709,0 -5.45709,5.10236 -10.91417,5.10236c-5.46084,0 -5.46084,-5.10236 -10.92167,-5.10236s-5.46086,5.10236 -10.92169,5.10236" class="pattern-2-b"/>
  </pattern>
  <style>.pattern-3-a{fill:none;}.pattern-3-b{fill:url(#a);}</style>
  <pattern viewBox="0 0 22.677 22.677" patternUnits="userSpaceOnUse" height="22.67717" width="22.67717" id="pattern-2">
   <rect height="22.67717" width="22.67717" class="pattern-3-a"/>
   <circle r="2.12616" cy="17.00805" cx="22.67708"/>
   <circle r="2.12616" cy="22.67735" cx="11.3385"/>
   <circle r="2.12616" cy="17.00805" cx="-0.00008"/>
   <circle r="2.12616" cy="5.66947" cx="22.67708"/>
   <circle r="2.12616" cy="11.33876" cx="11.3385"/>
   <circle r="2.12616" cy="5.66947" cx="-0.00008"/>
   <circle r="2.12616" cy="0.00018" cx="11.3385"/>
  </pattern>
  <style>.pattern-4-a,.pattern-4-b{fill:none;}.pattern-4-b{stroke:#000;stroke-miterlimit:10;stroke-width:2.83465px;}.pattern-4-c{fill:url(#a);}</style>
  <pattern viewBox="0 0 11.339 11.339" patternUnits="userSpaceOnUse" height="22.67716" width="22.67716" id="pattern-3">
   <rect height="11.33858" width="11.33858" class="pattern-4-a"/>
   <line y2="22.82035" x2="11.1954" y1="11.19535" x1="22.8204" class="pattern-4-b"/>
   <line y2="22.82035" x2="-0.14319" y1="11.19535" x1="11.48181" class="pattern-4-b"/>
   <line y2="22.82035" x2="-11.48177" y1="11.19535" x1="0.14323" class="pattern-4-b"/>
   <line y2="11.48177" x2="11.1954" y1="-0.14323" x1="22.8204" class="pattern-4-b"/>
   <line y2="11.48177" x2="-0.14319" y1="-0.14323" x1="11.48181" class="pattern-4-b"/>
   <line y2="11.48177" x2="-11.48177" y1="-0.14323" x1="0.14323" class="pattern-4-b"/>
   <line y2="0.14319" x2="11.1954" y1="-11.48181" x1="22.8204" class="pattern-4-b"/>
   <line y2="0.14319" x2="-0.14319" y1="-11.48181" x1="11.48181" class="pattern-4-b"/>
   <line y2="0.14319" x2="-11.48177" y1="-11.48181" x1="0.14323" class="pattern-4-b"/>
  </pattern>
  <style>.pattern-5-a,.pattern-5-b{fill:none;}.pattern-5-b{stroke:#000;stroke-miterlimit:10;stroke-width:2.83465px;}.pattern-5-c{fill:url(#a);}</style>
  <pattern viewBox="0 0 11.339 11.339" patternUnits="userSpaceOnUse" height="22.67716" width="22.67716" id="pattern-4">
   <rect height="11.33858" width="11.33858" class="pattern-5-a"/>
   <line y2="23.17472" x2="23.17456" y1="10.84139" x1="10.84123" class="pattern-5-b"/>
   <line y2="23.17472" x2="11.83598" y1="10.84139" x1="-0.49736" class="pattern-5-b"/>
   <line y2="23.17472" x2="0.49739" y1="10.84139" x1="-11.83594" class="pattern-5-b"/>
   <line y2="11.83614" x2="23.17456" y1="-0.4972" x1="10.84123" class="pattern-5-b"/>
   <line y2="11.83614" x2="11.83598" y1="-0.4972" x1="-0.49736" class="pattern-5-b"/>
   <line y2="11.83614" x2="0.49739" y1="-0.4972" x1="-11.83594" class="pattern-5-b"/>
   <line y2="0.49755" x2="23.17456" y1="-11.83578" x1="10.84123" class="pattern-5-b"/>
   <line y2="0.49755" x2="11.83598" y1="-11.83578" x1="-0.49736" class="pattern-5-b"/>
   <line y2="0.49755" x2="0.49739" y1="-11.83578" x1="-11.83594" class="pattern-5-b"/>
  </pattern>
  <style>.pattern-6-a,.pattern-6-b{fill:none;}.pattern-6-b{stroke:#000;stroke-miterlimit:10;stroke-width:5.6692913385826px;}.pattern-6-c{fill:url(#a);}</style>
  <pattern viewBox="0 0 11.3385826771652 11.337" patternUnits="userSpaceOnUse" height="11.33717" width="11.338583" id="pattern-5">
   <rect height="11.33717" width="8.50394" class="pattern-6-a"/>
   <line y2="11.33724" x2="4.25185" y1="0.00019" x1="4.25185" class="pattern-6-b"/>
  </pattern>
  <style>.pattern-7-a,.pattern-7-b{fill:none;}.pattern-7-b{stroke:#000;stroke-miterlimit:10;stroke-width:5.6692913385826px;}.pattern-7-c{fill:url(#a);}</style>
  <pattern viewBox="0 0 11.337 8.504" patternUnits="userSpaceOnUse" height="11.338583" width="11.33717" id="pattern-6">
   <rect height="11.338583" width="11.33717" class="pattern-7-a"/>
   <line y2="4.25213" x2="0.00004" y1="4.25213" x1="11.3371" class="pattern-7-b"/>
  </pattern>
  <style>.pattern-8-a{fill:none;}.pattern-8-b{stroke:#000;stroke-linejoin:round;stroke-width:2.83465px;}.pattern-8-c{fill:url(#a);}</style>
  <pattern viewBox="0 0 22.677 20.976" patternUnits="userSpaceOnUse" height="20.97638" width="22.67717" id="pattern-7">
   <rect height="20.97638" width="22.67717" class="pattern-8-a"/>
   <path d="m25.72437,21.1934a5.62313,5.62313 0 0 0 -3.08173,1.70215a4.93442,4.93442 0 0 0 -1.27335,2.9964a5.111,5.111 0 0 0 3.64929,5.11877l-0.05554,-0.004l0.00671,0.001l0.05371,0.00385c0.22861,0.04974 0.46072,0.11938 0.7009,0.18256l0,0.49847c-0.26279,0.02856 -0.5336,0.0636 -0.80792,0.0788l0.05331,0.00378l-0.00671,0.001l-0.05594,-0.00409a5.26562,5.26562 0 0 1 -3.86963,-1.80127a5.66524,5.66524 0 0 1 -1.38574,-4.2027a5.601,5.601 0 0 1 2.03561,-3.89966a5.02848,5.02848 0 0 1 4.037,-1.1073z" class="pattern-8-b"/>
   <path d="m14.38579,21.1934a5.62313,5.62313 0 0 0 -3.08173,1.70215a4.93442,4.93442 0 0 0 -1.27335,2.9964a5.111,5.111 0 0 0 3.64929,5.11877l-0.05554,-0.004l0.00671,0.001l0.05371,0.00385c0.22861,0.04974 0.46072,0.11938 0.7009,0.18256l0,0.49847c-0.26279,0.02856 -0.5336,0.0636 -0.80792,0.0788l0.05331,0.00378l-0.00671,0.001l-0.05594,-0.00409a5.26562,5.26562 0 0 1 -3.86962,-1.80123a5.66524,5.66524 0 0 1 -1.38574,-4.2027a5.601,5.601 0 0 1 2.03561,-3.89966a5.02848,5.02848 0 0 1 4.037,-1.1073z" class="pattern-8-b"/>
   <path d="m3.04721,21.1934a5.62313,5.62313 0 0 0 -3.08173,1.70214a4.93442,4.93442 0 0 0 -1.27335,2.9964a5.111,5.111 0 0 0 3.64929,5.11877l-0.05554,-0.004l0.00671,0.001l0.05371,0.00385c0.22861,0.04974 0.46072,0.11938 0.7009,0.18256l0,0.49847c-0.26279,0.02856 -0.5336,0.0636 -0.80792,0.0788l0.05331,0.00378l-0.00671,0.001l-0.05594,-0.00409a5.26562,5.26562 0 0 1 -3.86963,-1.80127a5.66524,5.66524 0 0 1 -1.38574,-4.2027a5.601,5.601 0 0 1 2.03562,-3.8996a5.02848,5.02848 0 0 1 4.037,-1.1073z" class="pattern-8-b"/>
   <path d="m25.72437,0.217a5.62313,5.62313 0 0 0 -3.08173,1.70215a4.93442,4.93442 0 0 0 -1.27335,2.9964a5.111,5.111 0 0 0 3.64929,5.11877l-0.05554,-0.004l0.00671,0.001l0.05371,0.00385c0.22861,0.04974 0.46072,0.11938 0.7009,0.18256l0,0.49847c-0.26279,0.02856 -0.5336,0.0636 -0.80792,0.0788l0.05331,0.00378l-0.00671,0.001l-0.05594,-0.00409a5.26562,5.26562 0 0 1 -3.86963,-1.80127a5.66524,5.66524 0 0 1 -1.38574,-4.2027a5.601,5.601 0 0 1 2.03563,-3.89959a5.02848,5.02848 0 0 1 4.037,-1.1073z" class="pattern-8-b"/>
   <path d="m25.72437,10.6831a5.62313,5.62313 0 0 0 -3.08173,1.70215a4.93442,4.93442 0 0 0 -1.27335,2.9964a5.111,5.111 0 0 0 3.64929,5.11877l-0.05554,-0.004l0.00671,0.001l0.05371,0.00385c0.22861,0.04974 0.46072,0.11938 0.7009,0.18256l0,0.49847c-0.26279,0.02856 -0.5336,0.0636 -0.80792,0.0788l0.05331,0.00378l-0.00671,0.001l-0.05594,-0.00409a5.26562,5.26562 0 0 1 -3.86963,-1.80127a5.66524,5.66524 0 0 1 -1.38574,-4.2027a5.601,5.601 0 0 1 2.03561,-3.89966a5.02848,5.02848 0 0 1 4.037,-1.1073z" class="pattern-8-b"/>
   <path d="m14.38579,0.217a5.62313,5.62313 0 0 0 -3.08173,1.70215a4.93442,4.93442 0 0 0 -1.27335,2.9964a5.111,5.111 0 0 0 3.64929,5.11879l-0.05554,-0.004l0.00671,0.001l0.05371,0.00385c0.22861,0.04974 0.46072,0.11938 0.7009,0.18256l0,0.49847c-0.26279,0.02856 -0.5336,0.0636 -0.80792,0.0788l0.05331,0.00378l-0.00671,0.001l-0.05594,-0.00409a5.26562,5.26562 0 0 1 -3.86962,-1.80123a5.66524,5.66524 0 0 1 -1.38574,-4.2027a5.601,5.601 0 0 1 2.03561,-3.89965a5.02848,5.02848 0 0 1 4.037,-1.1073z" class="pattern-8-b"/>
   <path d="m14.38579,10.6831a5.62313,5.62313 0 0 0 -3.08173,1.70215a4.93442,4.93442 0 0 0 -1.27335,2.9964a5.111,5.111 0 0 0 3.64929,5.11878l-0.05554,-0.004l0.00671,0.001l0.05371,0.00385c0.22861,0.04974 0.46072,0.11938 0.7009,0.18256l0,0.49847c-0.26279,0.02856 -0.5336,0.0636 -0.80792,0.0788l0.05331,0.00378l-0.00671,0.001l-0.05594,-0.00409a5.26562,5.26562 0 0 1 -3.86962,-1.80123a5.66524,5.66524 0 0 1 -1.38574,-4.2027a5.601,5.601 0 0 1 2.03561,-3.89966a5.02848,5.02848 0 0 1 4.037,-1.1073z" class="pattern-8-b"/>
   <path d="m3.04721,0.217a5.62313,5.62313 0 0 0 -3.08173,1.70217a4.93442,4.93442 0 0 0 -1.27335,2.9964a5.111,5.111 0 0 0 3.64929,5.11877l-0.05554,-0.004l0.00671,0.001l0.05371,0.00385c0.22861,0.04974 0.46072,0.11938 0.7009,0.18256l0,0.49847c-0.26279,0.02856 -0.5336,0.0636 -0.80792,0.0788l0.05331,0.00378l-0.00671,0.001l-0.05594,-0.00409a5.26562,5.26562 0 0 1 -3.86962,-1.80123a5.66524,5.66524 0 0 1 -1.38574,-4.2027a5.601,5.601 0 0 1 2.03561,-3.89965a5.02848,5.02848 0 0 1 4.037,-1.1073z" class="pattern-8-b"/>
   <path d="m3.04721,10.6831a5.62313,5.62313 0 0 0 -3.08173,1.70215a4.93442,4.93442 0 0 0 -1.27335,2.9964a5.111,5.111 0 0 0 3.64929,5.11877l-0.05554,-0.004l0.00671,0.001l0.05371,0.00385c0.22861,0.04974 0.46072,0.11938 0.7009,0.18256l0,0.49847c-0.26279,0.02856 -0.5336,0.0636 -0.80792,0.0788l0.05331,0.00378l-0.00671,0.001l-0.05594,-0.00409a5.26562,5.26562 0 0 1 -3.86963,-1.80127a5.66524,5.66524 0 0 1 -1.38574,-4.2027a5.601,5.601 0 0 1 2.03562,-3.89961a5.02848,5.02848 0 0 1 4.037,-1.1073z" class="pattern-8-b"/>
   <path d="m25.72437,-10.29327a5.62313,5.62313 0 0 0 -3.08173,1.70215a4.93442,4.93442 0 0 0 -1.27335,2.9964a5.111,5.111 0 0 0 3.6493,5.11872l-0.05554,-0.004l0.00671,0.001l0.05371,0.00385c0.22861,0.04974 0.46072,0.11938 0.7009,0.18256l0,0.49852c-0.26279,0.02856 -0.5336,0.0636 -0.80792,0.0788l0.05331,0.00378l-0.00671,0.001l-0.05594,-0.00405a5.26562,5.26562 0 0 1 -3.86963,-1.80127a5.66524,5.66524 0 0 1 -1.38574,-4.2027a5.601,5.601 0 0 1 2.03561,-3.89966a5.02848,5.02848 0 0 1 4.037,-1.1073z" class="pattern-8-b"/>
   <path d="m14.38579,-10.29327a5.62313,5.62313 0 0 0 -3.08173,1.70215a4.93442,4.93442 0 0 0 -1.27335,2.9964a5.111,5.111 0 0 0 3.64929,5.11872l-0.05553,-0.004l0.00671,0.001l0.05371,0.00385c0.22861,0.04974 0.46072,0.11938 0.7009,0.18256l0,0.49852c-0.26279,0.02856 -0.5336,0.0636 -0.80792,0.0788l0.05331,0.00378l-0.00671,0.001l-0.05594,-0.00405a5.26562,5.26562 0 0 1 -3.86963,-1.80127a5.66524,5.66524 0 0 1 -1.38574,-4.2027a5.601,5.601 0 0 1 2.03561,-3.89966a5.02848,5.02848 0 0 1 4.037,-1.1073z" class="pattern-8-b"/>
   <path d="m3.04721,-10.29327a5.62313,5.62313 0 0 0 -3.08173,1.70214a4.93442,4.93442 0 0 0 -1.27335,2.9964a5.111,5.111 0 0 0 3.6493,5.11873l-0.05554,-0.004l0.00671,0.001l0.05371,0.00385c0.22861,0.04974 0.46072,0.11938 0.7009,0.18256l0,0.49852c-0.26279,0.02856 -0.5336,0.0636 -0.80792,0.0788l0.05331,0.00378l-0.00671,0.001l-0.05594,-0.00405a5.26562,5.26562 0 0 1 -3.86963,-1.80127a5.66524,5.66524 0 0 1 -1.38574,-4.2027a5.601,5.601 0 0 1 2.03561,-3.89965a5.02848,5.02848 0 0 1 4.037,-1.1073z" class="pattern-8-b"/>
  </pattern>
  <style>.pattern-9-a,.pattern-9-b{fill:none;}.pattern-9-b{stroke:#010101;stroke-miterlimit:10;stroke-width:5.6692913385826px;}.pattern-9-c{fill:url(#a);}</style>
  <pattern viewBox="0 0 48.756 34.016" patternUnits="userSpaceOnUse" height="34.01575" width="48.75591" id="pattern-8">
   <rect height="34.01575" width="48.75591" class="pattern-9-a"/>
   <polyline points="47.801 28.006 60.466 40.025 73.127 28.006 85.797 40.025 98.467 28.006" class="pattern-9-b"/>
   <polyline points="-0.955 28.006 11.71 40.025 24.371 28.006 37.041 40.025 49.711 28.006" class="pattern-9-b"/>
   <polyline points="-49.711 28.006 -37.046 40.025 -24.385 28.006 -11.715 40.025 0.955 28.006" class="pattern-9-b"/>
   <polyline points="47.801 10.998 60.466 23.017 73.127 10.998 85.797 23.017 98.467 10.998" class="pattern-9-b"/>
   <polyline points="-0.955 10.998 11.71 23.017 24.371 10.998 37.041 23.017 49.711 10.998" class="pattern-9-b"/>
   <polyline points="-49.711 10.998 -37.046 23.017 -24.385 10.998 -11.715 23.017 0.955 10.998" class="pattern-9-b"/>
   <polyline points="47.801 -6.009 60.466 6.009 73.127 -6.009 85.797 6.009 98.467 -6.009" class="pattern-9-b"/>
   <polyline points="-0.955 -6.009 11.71 6.009 24.371 -6.009 37.041 6.009 49.711 -6.009" class="pattern-9-b"/>
   <polyline points="-49.711 -6.009 -37.046 6.009 -24.385 -6.009 -11.715 6.009 0.955 -6.009" class="pattern-9-b"/>
  </pattern>
  <style>.pattern-10-a,.pattern-10-b{fill:none;}.pattern-10-b{stroke:#000;stroke-miterlimit:10;stroke-width:5.6692913385826px;}.pattern-10-c{fill:url(#a);}</style>
  <pattern viewBox="0 0 45.354 25.512" patternUnits="userSpaceOnUse" height="25.51181" width="45.35433" id="pattern-9">
   <rect height="25.51181" width="45.35433" class="pattern-10-a"/>
   <path d="m37.52505,25.51193l7.82919,0l-0.00009,-8.25" class="pattern-10-b"/>
   <path d="m53.18342,25.51193l-7.82918,0l0.00009,8.25" class="pattern-10-b"/>
   <path d="m-7.82928,25.51193l7.82919,0l-0.00009,-8.25" class="pattern-10-b"/>
   <path d="m7.82909,25.51193l-7.82918,0l0.00009,8.25" class="pattern-10-b"/>
   <path d="m37.52505,0.00011l7.82919,0l-0.00009,-8.25" class="pattern-10-b"/>
   <path d="m53.18342,0.00011l-7.82918,0l0.00009,8.25" class="pattern-10-b"/>
   <path d="m14.84789,12.756l7.82919,0l-0.00008,-8.25" class="pattern-10-b"/>
   <path d="m30.50625,12.756l-7.82917,0l0.00009,8.25" class="pattern-10-b"/>
   <path d="m-7.82928,0.00011l7.82919,0l-0.00009,-8.25" class="pattern-10-b"/>
   <path d="m7.82909,0.00011l-7.82918,0l0.00009,8.25" class="pattern-10-b"/>
  </pattern>
 </defs>
 <g display="none">
  <title>background</title>
  <rect fill="#fff" id="canvas_background" height="568" width="802" y="-1" x="-1"/>
  <g display="none" overflow="visible" y="0" x="0" height="100%" width="100%" id="canvasGrid">
   <rect fill="url(#gridpattern)" stroke-width="0" y="0" x="0" height="100%" width="100%"/>
  </g>
 </g>
 <g>
  <title>Layer 1</title>
  <g scaleFactor="20000" id="svg_9">
   <g transform="matrix(1.570541474579656,0,0,1.570541474579656,-112.61750786653829,-84.86154836975038) " id="svg_8">
    <g transform="matrix(0.8354736566543579,0,0,0.8354736566543579,0,0) " id="svg_6">
     <path d="m364.012093,89.406716l-0.13,2.438c-0.05,1.341 -0.16,5.386 -0.25,9l-0.12,6.562l-3.69,-3.812c-4.26,-4.438 -4.83,-4.615 -4.81,-1.563c0.01,1.238 1.75,4.144 3.84,6.469c3.36,3.724 3.83,4.898 4.03,9.844c0.16,3.734 -0.14,5.402 -0.84,4.969c-0.58,-0.359 -1.03,-1.302 -1.03,-2.094c0,-0.793 -0.45,-1.438 -1,-1.438s-1,-1.742 -1,-3.875c0,-4.438 -2.52,-7.54 -4.09,-5.062c-0.51,0.79 -0.71,1.965 -0.47,2.625c0.53,1.457 -2.35,0.507 -4.28,-1.406c-0.73,-0.719 -1.9,-1.282 -2.63,-1.282c-2.7,0 -2.26,2.821 1.03,6.594c3.92,4.488 4.13,5.383 1.53,6.063c-1.27,0.333 -1.71,1.11 -1.37,2.406c0.56,2.152 3.24,2.535 5.06,0.719c1.36,-1.362 1.4,-1.29 1.63,2.468c0.19,3.137 0.01,3.208 -3.41,1.25c-3.35,-1.916 -4,-1.868 -4,0.407c0,1.06 1.46,3.069 3.25,4.468c2.44,1.909 2.71,2.415 1.12,2c-1.37,-0.36 -2.32,-0.001 -2.71,1.032c-0.86,2.243 -1.56,2.058 -8.22,-2.282c-3.27,-2.129 -6.44,-3.696 -7.03,-3.468c-2.09,0.797 -0.76,4.614 2.15,6.218l2.94,1.594l-2.69,0.313c-1.46,0.175 -2.9,0.94 -3.19,1.687c-0.56,1.462 1.94,2.895 3.44,1.969c0.5,-0.309 0.94,-0.083 0.94,0.5c0,0.582 0.79,1.081 1.75,1.125c1.27,0.057 1.36,0.222 0.34,0.625c-1.06,0.42 -0.85,0.986 0.91,2.312l2.34,1.75l-4.18,0.719c-4.31,0.728 -5.29,2.335 -2.72,4.469c0.97,0.804 1.99,0.884 3.12,0.25c1.89,-1.056 5.44,-0.465 5.44,0.906c0,0.486 0.9,0.906 2,0.906s2,-0.45 2,-1s1.01,-0.987 2.25,-0.968l2.25,0.031l-2.47,2.031c-1.92,1.596 -2.16,2.218 -1.09,2.875c1.5,0.928 4.09,0.25 5.37,-1.406c0.47,-0.599 0.59,0.152 0.25,1.687c-0.5,2.29 -0.27,2.75 1.41,2.75c1.11,0 2.05,-0.562 2.09,-1.25c0.06,-0.853 0.25,-0.8 0.63,0.157c0.4,1.023 0.91,0.744 1.84,-1l1.28,-2.407l1.25,2.75c0.69,1.509 0.94,3.068 0.53,3.469c-0.4,0.402 -3.98,0.893 -7.97,1.094c-6.66,0.336 -7.62,0.135 -12.03,-2.656c-4.38,-2.78 -7.59,-3.245 -7.59,-1.094c0,0.473 1.24,1.577 2.75,2.437l2.75,1.563l-3.5,-0.656c-3.46,-0.634 -9.29,-3.634 -11.84,-6.125c-0.73,-0.708 -2.19,-1.282 -3.25,-1.282c-2.04,0 -2.57,1.934 -0.97,3.532c0.6,0.6 -0.94,1.084 -4.19,1.281c-2.83,0.172 -5.53,0.539 -5.97,0.812c-3.29,2.033 4.82,5.723 10.69,4.875l4.03,-0.562l-2.81,1.594c-1.71,0.962 -2.71,2.262 -2.5,3.282c0.48,2.44 4.8,1.62 7.56,-1.44c1.28,-1.424 3.02,-2.358 4,-2.124c1.38,0.329 1.2,0.661 -0.91,1.534c-3.4,1.4 -4.43,3.05 -2.37,3.84c0.89,0.34 1.4,1.2 1.12,1.91c-0.27,0.71 0.18,1.54 0.97,1.84s1.44,0.16 1.44,-0.31c0,-0.82 3.23,-2.22 5.66,-2.47c0.63,-0.07 2.1,-0.99 3.25,-2.03s2.09,-1.56 2.09,-1.16c0,1.04 -2.19,3.08 -4.78,4.47c-1.23,0.66 -2.22,1.64 -2.22,2.19c0,1.89 3.08,2.18 4.97,0.47c1.8,-1.64 1.86,-1.62 1.34,0.37c-0.76,2.92 1.29,2.63 3.31,-0.47c1.27,-1.93 1.9,-2.24 2.54,-1.25c0.69,1.08 0.98,1.07 1.68,-0.03c0.48,-0.73 1.72,-1.22 2.75,-1.09c4.04,0.51 9.34,-3.09 9.5,-6.47c0.09,-1.82 0.19,-1.766 0.82,0.41c0.59,2.06 0.1,3.06 -2.85,5.72c-1.96,1.76 -6.34,4.67 -9.75,6.46l-6.19,3.25l-4.81,-2.4c-2.64,-1.32 -5.37,-2.5 -6.06,-2.63c-1.78,-0.34 -1.54,1.6 0.5,4c1.57,1.86 1.57,1.91 0.03,0.72c-0.94,-0.72 -2.09,-1.07 -2.56,-0.78c-0.48,0.29 -2.12,-0.11 -3.66,-0.91c-3.68,-1.91 -4.83,-1.81 -4.15,0.32c0.44,1.41 -0.03,1.72 -2.44,1.65c-1.65,-0.05 -3.23,-0.35 -3.53,-0.65c-1.22,-1.22 -4.44,0.57 -4.44,2.47c0,1.53 0.49,1.88 2.09,1.46c2.01,-0.52 2.02,-0.47 0.35,1.38c-1.81,2 -1.52,2.27 2.28,1.97c1.74,-0.14 2.1,0.19 1.59,1.53c-0.54,1.41 -0.19,1.64 1.88,1.25c2.07,-0.4 2.42,-0.16 2.03,1.34c-0.54,2.05 0.1,2.27 2.59,0.94c2.45,-1.3 5.55,2.84 3.53,4.72c-1.12,1.05 -1.47,1.01 -1.9,-0.13c-0.3,-0.78 -2.07,-1.42 -4.03,-1.5c-1.93,-0.07 -3.27,0.27 -2.97,0.75c0.3,0.49 -0.34,0.64 -1.44,0.35c-2.53,-0.66 -2.6,0.86 -0.13,2.4c1.32,0.82 1.72,1.92 1.38,3.72c-0.6,3.17 -0.76,3.19 -4.44,0.1c-1.63,-1.38 -3.62,-2.5 -4.4,-2.5c-1.68,0 -1.77,0.49 -0.47,2.9c1.05,1.96 0.39,2.01 -7.19,0.57c-2.47,-0.48 -3.75,-0.34 -3.75,0.37c0,1.29 5.19,4.16 7.56,4.16c1.37,0 1.45,0.25 0.44,1.47c-0.99,1.19 -0.96,1.61 0.22,2.06c0.8,0.31 1.88,0.47 2.37,0.37c2.09,-0.39 3.39,0.18 3.16,1.35c-0.15,0.76 0.81,1.22 2.5,1.18c2.12,-0.04 2.76,0.42 2.78,2c0.03,1.98 0.11,1.96 2,-0.31c1.56,-1.87 1.97,-2.01 1.97,-0.69c0,0.92 0.45,1.41 1,1.07s1.43,0.54 1.97,1.97c0.54,1.42 1.67,2.83 2.5,3.15s1.53,1.2 1.53,1.97s0.72,1.41 1.62,1.41c0.91,0 2.21,0.76 2.91,1.72c1.2,1.63 1.42,1.62 3.63,-0.25l2.34,-1.97l-1.78,2.09c-1.08,1.28 -4.41,2.73 -8.63,3.75c-8.8,2.13 -10.93,2.06 -14.53,-0.31c-3.33,-2.2 -4.96,-1.79 -4.06,1.03c0.5,1.58 0.12,1.94 -2.25,1.94c-1.58,0 -3.32,-0.45 -3.88,-1c-0.67,-0.68 -1.64,-0.54 -2.93,0.4c-1.86,1.36 -1.81,1.49 1.28,3.25c2.33,1.33 3.07,2.35 2.65,3.66c-0.36,1.17 -0.08,1.74 0.79,1.62c2.89,-0.39 4.01,0.1 3.46,1.54c-0.95,2.5 2.7,3.69 5.47,1.78c1.83,-1.26 2.09,-1.32 1.19,-0.19c-1.69,2.1 -0.06,4.3 2.56,3.47c3.79,-1.2 4.81,0.72 1.1,2.06c-4.77,1.72 -9.53,1.69 -11.32,-0.09c-1.97,-1.98 -5.03,-2 -4.28,-0.03c0.47,1.21 -0.23,1.37 -3.9,0.87c-5.38,-0.74 -6.06,0.93 -1.1,2.72c2.41,0.87 3.26,1.71 2.94,2.94c-0.53,2.04 2.63,3.17 5.06,1.81c1.33,-0.74 1.66,-0.45 1.66,1.53c0,2.03 0.37,2.37 2.16,1.91c1.76,-0.47 2.02,-0.27 1.46,1.18c-0.54,1.43 -0.26,1.71 1.35,1.29c1.11,-0.29 2.03,-0.13 2.03,0.37c0,1.75 2.12,0.87 4.78,-1.97c3.21,-3.42 5.11,-4.18 7.47,-2.97c2.74,1.41 2.05,2.55 -1.25,2.07c-3.44,-0.51 -3.95,1.01 -1.47,4.56c1.45,2.07 1.45,2.22 -0.41,2.22c-1.09,0 -2.67,0.67 -3.5,1.5c-0.82,0.82 -2.16,1.5 -3,1.5c-0.83,0 -1.77,0.42 -2.09,0.93c-0.32,0.52 -2.33,0.91 -4.47,0.88s-4.47,0.31 -5.19,0.75c-0.71,0.44 -2.76,0.71 -4.53,0.59c-2.66,-0.18 -3.26,0.18 -3.53,2.07c-0.23,1.63 -1.01,2.29 -2.81,2.37c-1.38,0.06 -2.95,0.23 -3.5,0.38c-0.55,0.14 -1.79,0.16 -2.75,0.06s-1.75,0.22 -1.75,0.69c0,1.32 5.53,4.28 8.03,4.28c2.19,0 2.23,0.05 0.47,2c-1.77,1.95 -1.75,2 0.81,2c1.96,0 2.48,0.37 2.03,1.53c-0.48,1.26 -0.06,1.43 2.28,0.87c1.59,-0.37 3.1,-0.66 3.38,-0.65c3.12,0.06 3.84,0.4 3.37,1.62c-1.04,2.72 1.55,2.65 3.04,-0.09c1.41,-2.61 1.49,-2.64 1.53,-0.53c0.02,1.23 0.4,2.28 0.81,2.34c6.11,0.89 7.11,0.6 8.34,-2.37l1.25,-3l0.88,2.37l0.87,2.41l1.94,-2.5c1.92,-2.5 1.92,-2.5 1.94,-0.25c0.03,3.03 1.81,2.86 2.59,-0.25c0.35,-1.38 1.07,-2.5 1.6,-2.5c0.52,0 0.62,0.48 0.25,1.09c-0.48,0.77 0.29,0.9 2.56,0.41c2.41,-0.53 3.16,-0.41 2.84,0.53c-0.61,1.84 -6.88,4.97 -9.97,4.97c-1.46,0 -2.86,0.56 -3.12,1.25c-0.3,0.76 -2.25,1.2 -5.1,1.15c-2.54,-0.04 -4.62,0.27 -4.62,0.69c0,1.92 3.47,4.01 6.22,3.72c1.63,-0.17 3.04,0.08 3.12,0.59c0.27,1.67 -5.59,2.6 -19.84,3.16c-16.06,0.62 -22.5,1.33 -22.5,2.41c0,0.41 -1.13,0.54 -2.5,0.28c-1.42,-0.28 -2.5,-0.02 -2.5,0.59c0,1.4 3.27,3.16 5.91,3.16c1.13,0 2.09,0.45 2.09,1s-0.49,1 -1.06,1c-0.58,0 -2.04,0.93 -3.25,2.09l-2.19,2.13l3.25,-0.44c2.15,-0.3 3.25,-0.04 3.25,0.78c0,0.74 0.8,1.03 2,0.72c1.12,-0.29 2,-0.03 2,0.59c0,1.62 2.54,1.38 4,-0.37c0.68,-0.83 1.68,-1.5 2.25,-1.5s0.32,0.8 -0.59,1.81c-0.91,1 -1.66,2.13 -1.66,2.5c0,1.06 3.81,0.8 4.5,-0.31c0.99,-1.61 2.31,-1.16 3,1c0.8,2.53 1.94,2.51 5.56,-0.07l2.91,-2.06l-0.63,3.06c-0.75,3.77 1.07,4.07 5.13,0.88c2.67,-2.1 2.74,-2.1 1.69,-0.13c-1.25,2.33 -0.65,3.43 1.43,2.63c0.78,-0.3 2.09,0.01 2.91,0.69c1.03,0.85 1.5,0.9 1.5,0.12c0,-0.62 0.67,-1.12 1.5,-1.12c0.82,0 1.5,0.62 1.5,1.4c0,0.97 0.89,1.34 2.75,1.13c10.41,-1.18 -3.05,4.87 -15.16,6.81c-7.91,1.27 -8.7,1.22 -11.31,-0.5c-1.54,-1.02 -3.34,-1.84 -4.03,-1.84c-2.07,-0.01 -1.41,1.99 1,3.03c1.65,0.71 1.05,0.79 -2.25,0.28c-2.48,-0.38 -5.63,-0.63 -7,-0.56c-1.38,0.07 -4.73,-0.53 -7.44,-1.32c-2.7,-0.78 -5.07,-1.3 -5.25,-1.12c-1.04,1.04 5.36,5.17 8.94,5.75l4.25,0.69l-3.75,0.12c-2.61,0.09 -3.75,0.58 -3.75,1.63c0,0.82 0.79,1.57 1.75,1.65c0.96,0.09 2.2,0.25 2.75,0.38s1.64,0.28 2.44,0.34c1.06,0.09 0.92,0.49 -0.5,1.53c-2.47,1.81 -1.3,3.11 1.47,1.63c1.72,-0.92 2.09,-0.83 2.09,0.53c0,1.28 0.72,1.54 3.25,1.19c1.79,-0.25 4.15,-0.79 5.25,-1.19c1.97,-0.72 1.94,-0.72 0.03,0.84c-1.95,1.59 -1.53,1.96 1.72,1.63c1,-0.1 1.75,0.51 1.75,1.4c0,2.14 0.81,1.97 3.19,-0.68l2.03,-2.25l-1.63,2.72c-0.88,1.49 -1.59,3.17 -1.59,3.75c0,1.54 4.91,0.4 7.25,-1.69c1.96,-1.76 1.98,-1.72 1.22,0.72c-1.06,3.39 -2.29,4.1 -11.5,6.87c-7.66,2.3 -8.12,2.33 -12.25,0.75c-4.51,-1.72 -10.72,-2.21 -10.72,-0.84c0,0.44 0.52,1.36 1.19,2.03c0.81,0.81 -0.53,0.68 -4.1,-0.38c-2.92,-0.86 -5.99,-1.32 -6.84,-1c-1.31,0.51 -1.19,1 0.75,3.07l2.28,2.43l-3.37,-0.96c-4.35,-1.25 -9.64,-1.25 -10.41,0c-0.79,1.28 5.89,4.02 9.84,4.03l3.16,0l-2.94,2.34c-2.9,2.32 -2.87,5.36 0.03,4.25c0.97,-0.37 1.41,0.23 1.41,1.94c0,1.77 0.52,2.47 1.91,2.47c1.06,0 2.62,0.68 3.46,1.53c1.28,1.27 1.87,1.3 3.57,0.25c1.12,-0.7 2.06,-1.62 2.06,-2.03c0,-0.42 0.79,0.03 1.78,1c1.92,1.85 2.46,4.25 0.97,4.25c-0.49,0 -0.56,0.48 -0.19,1.09c0.48,0.77 -0.26,0.91 -2.44,0.44c-1.99,-0.44 -3.12,-0.32 -3.12,0.37c0,0.62 -1.95,1.1 -4.5,1.1c-4.69,0 -5.57,0.86 -3,3c1,0.83 3.12,1.05 6.25,0.65l4.75,-0.59l-3.72,1.97c-2.58,1.37 -3.54,2.45 -3.12,3.53c0.37,0.97 1.2,1.29 2.21,0.87c0.9,-0.37 2.3,-0.77 3.13,-0.9c0.82,-0.14 0.94,-0.05 0.25,0.19c-2.53,0.87 -1.22,2.47 1.5,1.84c1.97,-0.46 2.33,-0.36 1.28,0.34c-2.64,1.76 -0.29,2.27 2.88,0.63c1.7,-0.88 3.09,-1.18 3.09,-0.66s-0.56,1.16 -1.25,1.41c-0.69,0.24 -0.9,0.82 -0.47,1.28s2.07,0.35 3.66,-0.25c2.36,-0.89 2.81,-0.83 2.37,0.31c-0.38,1.01 -0.03,1.19 1.31,0.72c1.57,-0.55 1.66,-0.42 0.57,0.75c-1.03,1.09 -4.47,1.35 -15.75,1.19c-8.73,-0.13 -14.44,0.17 -14.44,0.75c0,0.53 0.7,0.97 1.56,0.97c0.87,0 2.2,0.63 2.97,1.4c1.21,1.21 1.18,1.49 -0.16,2c-0.85,0.33 -2.97,0.59 -4.71,0.6c-3.68,0.01 -6.2,1.32 -5.32,2.75c1.09,1.76 6.06,2.08 10.16,0.65c5.47,-1.9 5.77,-1.79 2.94,1.03c-3.53,3.53 -3.27,5.66 0.53,4.57c1.63,-0.47 3.43,-1.15 4,-1.5s1.07,0.19 1.15,1.18c0.09,1 0.23,2.32 0.29,2.97s0.41,1.51 0.78,1.88c0.79,0.79 6.81,-2.59 6.81,-3.81c0,-0.47 0.41,-0.58 0.94,-0.25c0.61,0.38 0.61,1.5 0,3.12c-0.53,1.39 -0.94,2.98 -0.94,3.53c0,1.32 4.73,-2.1 9.47,-6.84c3.54,-3.54 4.04,-2.94 0.75,0.9c-0.81,0.95 -1.17,2.48 -0.81,3.41c0.57,1.5 0.9,1.41 3.18,-0.72l2.6,-2.37l-0.35,2.5c-0.31,2.29 -0.99,2.59 -8.34,3.81c-5.16,0.85 -8.54,0.98 -9.53,0.37c-2.51,-1.54 -7.97,-2.46 -7.97,-1.34c0,0.56 0.79,1.22 1.75,1.47c0.96,0.24 -0.5,0.24 -3.25,0c-4.02,-0.35 -4.76,-0.2 -3.75,0.81c1.91,1.93 1.48,2.65 -1.25,2.13c-3.23,-0.62 -7.77,0.53 -7,1.78c0.33,0.53 1.62,0.97 2.87,0.97c4.28,0 3.68,1.37 -1.53,3.47c-8.87,3.56 -6.93,6.21 2.19,3c4.62,-1.63 6.43,-1.35 3.03,0.46c-1.14,0.62 -2.06,1.83 -2.06,2.69c0,1.21 0.61,1.42 2.66,0.91c2.36,-0.59 2.53,-0.5 1.37,0.9c-2.69,3.25 0.16,3.26 4.63,0c2.08,-1.52 2.16,-1.5 1.59,0.72c-0.54,2.09 -0.43,2.19 1.09,0.94c1.51,-1.23 1.61,-1.18 1,0.5c-0.59,1.66 -0.36,1.6 1.82,-0.37c2.54,-2.32 4.11,-2.13 3.15,0.37c-0.76,1.99 1.64,1.73 5.44,-0.59c1.81,-1.11 3.25,-1.49 3.25,-0.88c0,0.68 1.05,0.86 2.75,0.47c1.86,-0.42 2.26,-0.33 1.25,0.28c-0.83,0.5 -3.98,1.41 -7,2.03c-6.51,1.35 -8.54,2.44 -7.53,4.07c0.69,1.11 2.03,0.99 8.03,-0.63c1.53,-0.41 1.24,0.22 -1.25,2.63c-1.79,1.72 -3.25,3.34 -3.25,3.62c0,0.99 5.56,-0.24 8.75,-1.94c3.51,-1.86 4.04,-1.29 1.72,1.78c-2.03,2.69 -1.84,3.87 0.53,3.25c1.3,-0.34 2,0 2,0.91c0,1.87 0.92,1.77 3.25,-0.34c1.85,-1.67 1.93,-1.66 1.59,0.25c-0.53,3.05 5.02,2.13 7.97,-1.32l2.31,-2.68l-0.65,3.25c-0.87,4.3 1.64,4.41 5.53,0.25c1.54,-1.65 2.93,-3 3.12,-3c0.2,0 0.42,1.16 0.5,2.59c0.23,3.93 1.86,4.99 3.94,2.56c1.65,-1.92 1.88,-1.95 3.1,-0.37c1.2,1.56 1.34,1.54 1.9,-0.47c0.37,-1.3 1.16,-1.97 1.97,-1.66c0.86,0.33 1.6,-0.45 2.03,-2.15c0.47,-1.85 0.93,-2.31 1.47,-1.44c0.43,0.7 1.72,1.42 2.88,1.59c1.62,0.25 2.58,-0.66 4.28,-4.15c2.19,-4.51 4.5,-6.25 3.31,-2.5c-0.77,2.42 -0.19,2.48 3.03,0.37c1.36,-0.89 2.5,-2.57 2.56,-3.75c0.1,-1.71 0.23,-1.78 0.6,-0.37c0.76,2.91 2.31,0.89 2.34,-3.07c0.03,-2.99 0.21,-3.35 1.03,-1.93c0.56,0.96 1.96,1.75 3.1,1.75c1.97,0 2.04,0.36 1.4,7.75c-0.45,5.16 -1.49,9.37 -3.12,12.59c-0.96,1.89 -1.76,3.57 -2.16,4.5l24.88,0c1.1,-0.88 0.6,-2.43 -0.54,-5.16c-1.77,-4.24 -2.45,-12.91 -1.06,-13.37c0.55,-0.18 1.77,1 2.75,2.66c1.83,3.08 4.07,4.22 3.03,1.53c-1.18,-3.08 0.68,-1.4 2.03,1.84c1.08,2.58 1.95,3.35 3.75,3.22c1.3,-0.1 3.01,0.29 3.79,0.87c1.01,0.76 1.52,0.73 1.81,-0.12c0.26,-0.79 1.06,-0.54 2.34,0.75c2.58,2.57 3.86,2.45 3.25,-0.31c-0.29,-1.32 -0.14,-1.82 0.35,-1.19c1.15,1.48 4.34,2.55 4.34,1.47c0,-1.01 5.52,-0.65 8.41,0.53c1.52,0.62 1.8,0.43 1.31,-0.84c-0.34,-0.89 -0.1,-1.79 0.56,-2.04c0.91,-0.33 0.92,-0.77 -0.03,-1.78c-2.27,-2.4 -1.33,-2.71 2.41,-0.81c4.13,2.11 5.28,1.8 3.28,-0.84c-1.07,-1.42 -1.09,-1.53 -0.03,-0.6c0.72,0.65 1.93,0.95 2.68,0.66c0.76,-0.29 1.41,-0.13 1.41,0.37c0,0.51 0.61,1.77 1.37,2.82c1.2,1.64 1.64,1.71 3.07,0.53c1.43,-1.19 1.84,-1.05 3.25,0.97l1.62,2.31l0.91,-2.41c0.83,-2.23 0.99,-2.28 2.19,-0.65c1.58,2.14 2.29,2.17 4.25,0.22c1.22,-1.22 1.28,-1.83 0.31,-3c-0.67,-0.81 -0.93,-1.47 -0.56,-1.47c0.36,0 0.13,-1.02 -0.5,-2.25c-0.98,-1.89 -0.61,-1.78 2.21,0.78c6.23,5.62 6.64,5.83 8.41,4.06c0.88,-0.88 1.25,-2.15 0.84,-2.84c-0.41,-0.72 0.1,-0.6 1.19,0.28c5.29,4.24 10.64,5.08 7.03,1.09c-1.62,-1.8 -1.57,-1.94 1.03,-2.59l2.72,-0.69l-2.93,-2.37c-3.84,-3.14 -1.79,-3.15 3.71,0c2.4,1.36 4.94,2.49 5.63,2.5c2.02,0.01 1.44,-1.58 -1,-2.75c-2.03,-0.98 -1.87,-1.1 1.78,-1.16c2.23,-0.04 4.93,-0.72 6,-1.53c1.85,-1.4 1.82,-1.47 -1.03,-1.5c-4.28,-0.05 -19.52,-2.82 -22.69,-4.13c-3.88,-1.6 -4.62,-4.04 -0.78,-2.59c3.37,1.27 5.08,0.22 2.59,-1.59c-1.44,-1.06 -0.97,-1.18 2.85,-0.88c4.87,0.39 5.91,-0.84 2.28,-2.69c-1.95,-0.99 -1.62,-1.11 2.62,-0.9c5.73,0.28 7.34,-1.6 2.41,-2.82l-3.28,-0.81l3.25,-0.37c3.81,-0.46 4.14,-1.49 1,-3.1c-1.84,-0.94 -1.06,-1.07 4.25,-0.62c5.98,0.5 6.32,0.42 4.53,-1c-1.07,-0.85 -2.72,-1.53 -3.69,-1.53c-0.96,0 -2.03,-0.5 -2.4,-1.1c-0.42,-0.68 0.2,-1.03 1.68,-0.9c4.18,0.34 6.88,0.01 6.88,-0.88c0,-0.48 -3.17,-1.18 -7.03,-1.56s-6.81,-1.06 -6.53,-1.5c0.27,-0.45 3.15,-1.41 6.4,-2.13c6.13,-1.36 10.01,-3.39 8.78,-4.62c-0.62,-0.63 -6.19,0.28 -13.62,2.25c-2.28,0.6 -2.23,0.42 0.91,-2.28c5.15,-4.44 2.24,-4.9 -5.19,-0.81c-7.46,4.1 -11.74,4.43 -20,1.59c-9.38,-3.23 -24.59,-10.95 -25.72,-13.06c-1.4,-2.62 -0.61,-2.55 1.94,0.18c1.12,1.21 2.06,1.82 2.06,1.38c0,-0.45 0.67,-0.25 1.5,0.44c1.24,1.02 1.5,0.93 1.5,-0.57s0.51,-1.32 3.12,1.13l3.13,2.94l-0.59,-3.22c-0.6,-3.18 -0.56,-3.21 2.12,-2.06c1.5,0.63 3.39,1.67 4.22,2.31c3.88,2.98 4.33,2.92 3.62,-0.6c-0.53,-2.65 -0.42,-3.11 0.54,-2.15c1.74,1.74 5.84,1.54 5.84,-0.28c0,-1.87 1.61,-1.96 2.69,-0.16c0.44,0.74 2.05,2.12 3.56,3.09c2.27,1.47 2.75,1.52 2.75,0.32c0,-0.81 -0.9,-2.26 -2,-3.25c-1.1,-1 -2,-2.29 -2,-2.85c0,-0.55 0.25,-0.71 0.59,-0.37s1.33,-0.08 2.19,-0.94c1.08,-1.08 2.71,-1.41 5.31,-1.06c2.59,0.35 3.93,0.08 4.28,-0.85c0.4,-1.02 1.31,-1.12 3.82,-0.4c8.82,2.53 10.44,-0.36 1.93,-3.44c-5.75,-2.08 -6.47,-3.14 -1.09,-1.59c6.84,1.96 15.74,0.47 11.97,-2c-0.83,-0.55 -3.53,-1.06 -6,-1.13c-3.82,-0.11 -4.07,-0.21 -1.59,-0.75c1.6,-0.35 3.11,-1.26 3.37,-2.03c0.39,-1.17 -1.19,-1.3 -9.69,-0.72c-10,0.69 -10.16,0.69 -8.93,-1.28c1.83,-2.93 0.57,-3.44 -4.41,-1.75c-2.69,0.91 -6.15,1.3 -8.84,0.97c-5.78,-0.71 -24.91,-7.12 -27.16,-9.09c-2.35,-2.07 -2.22,-3.51 0.25,-2.72c1.12,0.35 2,0.17 2,-0.41c0,-1.08 1.5,-0.77 6.5,1.41c1.65,0.72 5.27,1.32 8.06,1.34s5.49,0.12 6,0.22c2.34,0.45 2.59,-0.24 0.85,-2.31c-1.26,-1.5 -0.86,-1.33 1.15,0.5c3.46,3.13 4.44,3.39 4.44,1.22c0,-1.32 0.32,-1.32 2.56,0.15c1.51,0.99 2.86,1.3 3.25,0.75c0.37,-0.52 2.01,-1.52 3.66,-2.25c2.87,-1.26 2.92,-1.36 1.06,-2.72c-2.26,-1.65 -1.69,-1.79 1.88,-0.43c1.93,0.73 2.59,0.66 2.59,-0.32c0,-0.79 2.54,-1.83 6.5,-2.65c3.57,-0.75 6.5,-1.77 6.5,-2.25c0,-0.49 0.42,-0.59 0.97,-0.25c0.54,0.33 1.79,0.16 2.75,-0.38c1.52,-0.85 1.39,-1.08 -1.03,-1.69c-2.09,-0.52 -2.62,-1.13 -2.19,-2.5c0.42,-1.33 -0.02,-1.87 -1.72,-2.12c-1.62,-0.24 -0.47,-0.94 3.94,-2.34c6.83,-2.18 8.51,-4.15 2.53,-2.97c-5.53,1.08 -19.25,1.33 -19.25,0.34c0,-0.47 0.45,-0.84 1,-0.84s1,-0.46 1,-1c0,-0.55 -2.14,-0.96 -4.75,-0.91c-6.56,0.13 -17.05,-2.06 -17.69,-3.72c-0.36,-0.93 0.29,-1.37 1.97,-1.37c1.36,0 2.47,-0.44 2.47,-0.97c0,-0.54 0.67,-0.73 1.5,-0.41c0.82,0.32 1.5,0.05 1.5,-0.59c0,-0.77 0.75,-0.62 2.22,0.4c1.22,0.86 3.36,1.55 4.75,1.54l2.53,-0.04l-2.31,-1.93l-2.28,-1.91l4.78,-0.31l4.81,-0.35l-3.5,-1.68l-3.5,-1.69l3.06,-0.03c1.95,-0.03 3.95,-0.95 5.44,-2.53c1.29,-1.38 2.81,-2.5 3.41,-2.5c0.59,0 1.68,-0.92 2.37,-2.03c1.83,-2.93 -0.5,-3.52 -6.25,-1.57c-6.2,2.11 -7.48,2.05 -6.84,-0.4c0.63,-2.42 0.46,-2.43 -5.82,-0.38c-4.77,1.56 -5.27,1.52 -12.9,-0.65c-10.29,-2.94 -12.93,-5.68 -5,-5.22c0.82,0.04 1.8,-0.41 2.19,-1.03c0.49,-0.8 1.32,-0.61 2.71,0.65c1.57,1.42 2.88,1.66 6.07,1.13c4.54,-0.77 4.82,-1.15 2.31,-3.22c-1.8,-1.48 -1.13,-1.44 3.16,0.28c1.53,0.61 1.79,0.43 1.28,-0.91c-0.48,-1.23 -0.09,-1.65 1.43,-1.65c1.4,0 1.91,-0.48 1.54,-1.44c-0.31,-0.79 -0.04,-1.66 0.62,-1.94c0.84,-0.35 0.73,-0.92 -0.44,-1.87c-1.51,-1.25 -1.45,-1.54 0.75,-3.66c3.61,-3.47 2.94,-4.19 -2.34,-2.5c-13.12,4.21 -17.94,4.46 -21.16,1.03c-1.82,-1.94 -1.93,-2.47 -0.72,-2.94c0.82,-0.31 2.84,-0.06 4.5,0.57c4.28,1.61 5.19,0 1.63,-2.88c-2.5,-2.02 -2.67,-2.39 -1,-2.25c3.5,0.3 5.5,-0.09 5.5,-1.12c0,-0.55 -0.79,-1.03 -1.75,-1.07c-1.42,-0.05 -1.37,-0.24 0.34,-0.93c1.16,-0.47 2.38,-1.56 2.72,-2.44c0.54,-1.39 0.34,-1.46 -1.59,-0.38c-3.49,1.96 -24.33,1.66 -28.72,-0.4c-3.07,-1.44 -3.23,-1.65 -1.16,-1.72c1.9,-0.07 2.29,-0.48 1.85,-2.16c-0.49,-1.87 -0.38,-1.95 1.12,-0.65c2.19,1.87 5.19,2.92 5.19,1.81c0,-0.48 0.9,-0.66 2,-0.38c1.12,0.3 2,0.03 2,-0.59c0,-0.61 1.12,-1.09 2.5,-1.09c3.32,0 3.16,-1 -0.69,-4.16l-3.22,-2.62l5.35,0.84c5.51,0.87 7.51,0.51 6.47,-1.19c-1.03,-1.66 1.66,-3.87 4.68,-3.87c3.41,0 3.88,-1.65 0.66,-2.35c-1.28,-0.27 -0.74,-0.45 1.25,-0.37c2.28,0.08 3.41,-0.27 3.25,-1.06c-0.14,-0.67 0.23,-1.22 0.84,-1.22c0.76,0 0.72,-0.51 -0.15,-1.57c-0.83,-0.99 -2.24,-1.39 -3.88,-1.06c-1.41,0.29 -2,0.3 -1.31,0c2.31,-1 1.29,-2.6 -1.25,-1.97c-2.03,0.51 -2.34,0.31 -1.81,-1.06c0.47,-1.23 0.26,-1.45 -0.72,-0.84c-0.74,0.45 -2.49,0.91 -3.91,1.03c-1.41,0.11 -3.69,0.52 -5.06,0.9l-2.5,0.69l2.75,-2.34c3.18,-2.73 3.64,-4.33 0.81,-2.81c-2.79,1.49 -4.83,1.36 -3.28,-0.19c2.25,-2.25 1.36,-4.02 -0.94,-1.88c-1.17,1.1 -3.53,2.66 -5.25,3.47c-6.11,2.9 -22.59,-1.05 -22.59,-5.4c0,-0.88 -0.56,-2.13 -1.22,-2.79c-0.8,-0.8 -0.82,-1.18 -0.09,-1.18c0.6,0 1.34,0.67 1.65,1.5c0.37,0.95 1.8,1.45 3.88,1.37c1.8,-0.06 4.29,0.22 5.53,0.63c1.85,0.6 2.25,0.33 2.25,-1.38l0,-2.06l3.41,2c2.44,1.44 3.61,1.71 4.12,0.87c0.4,-0.63 0.1,-1.58 -0.66,-2.09c-1.18,-0.8 4.65,-0.69 8.63,0.16c0.55,0.11 2.02,-0.13 3.28,-0.53c2.11,-0.68 2.15,-0.89 0.69,-2.5c-1.47,-1.63 -1.39,-1.79 0.97,-2.38c2.89,-0.72 3.46,-2.6 0.81,-2.66c-1.1,-0.02 -0.64,-0.53 1.25,-1.4c1.65,-0.76 4.32,-2.47 5.94,-3.81l2.9,-2.44l-3.65,-0.69c-2.03,-0.38 -3.69,-1.12 -3.69,-1.66c0,-0.56 -1.16,-0.7 -2.75,-0.31c-2.4,0.6 -2.61,0.51 -1.5,-0.84c1.93,-2.35 -0.95,-3.06 -3.91,-0.97c-1.38,0.98 -4.39,1.71 -7.28,1.75c-3.94,0.06 -4.5,-0.14 -2.78,-0.91c1.95,-0.87 2.14,-1.68 1.28,-5.5c-0.04,-0.18 -1.58,0.61 -3.44,1.75c-1.85,1.15 -4.88,2.07 -6.75,2.07c-6.23,-0.02 -16.96,-4.18 -23.78,-9.22c-2.62,-1.95 -2.06,-2.35 0.97,-0.72c1.58,0.84 1.95,0.7 1.97,-0.75c0.03,-1.71 0.08,-1.72 1.06,-0.03c0.57,0.97 1.44,1.52 1.94,1.22c0.5,-0.31 2.05,0.18 3.44,1.09c2.5,1.64 2.51,1.61 2.53,-1.22c0.01,-1.58 0.35,-2.36 0.75,-1.75c0.88,1.31 4.65,3.41 6.16,3.41c0.58,0 1.13,-1.02 1.18,-2.25c0.1,-2.14 0.12,-2.13 0.78,0.25c0.39,1.37 0.91,2.29 1.16,2.06s1.39,0.08 2.53,0.69c1.69,0.9 2.33,0.75 3.44,-0.78c0.75,-1.04 1.75,-1.64 2.22,-1.35s0.55,-0.63 0.19,-2.06c-0.63,-2.49 -0.54,-2.56 2.09,-1.56c3.25,1.23 4.26,0.62 2.5,-1.5c-1.05,-1.27 -0.95,-1.5 0.53,-1.5c1.68,0 1.66,-0.11 0.03,-1.91c-0.94,-1.05 -1.29,-2.15 -0.78,-2.47s1.72,0.3 2.69,1.38c1.52,1.68 2.5,1.83 6.37,1.06c0.21,-0.04 -0.1,-0.67 -0.72,-1.41c-1.3,-1.57 -0.53,-2.65 1.91,-2.65c0.95,0 2.8,-0.89 4.09,-1.97l2.38,-1.97l-3,-0.19c-1.65,-0.1 -4.1,-0.09 -5.44,0.03c-2.11,0.2 -2.27,0.01 -1.12,-1.37c2.18,-2.64 0.64,-2.63 -3.22,0c-4.19,2.85 -6.72,3.34 -4.72,0.94c1.06,-1.28 1,-1.44 -0.38,-0.91c-1.9,0.73 -2.18,-0.63 -0.46,-2.34c2.56,-2.57 -0.16,-2.18 -3.32,0.46c-6.21,5.21 -6.98,5.38 -14,3.25c-7.36,-2.22 -12.29,-5.01 -13.78,-7.78c-0.91,-1.69 -0.7,-1.93 1.47,-1.81c1.37,0.08 2.7,0.84 2.97,1.69c0.27,0.84 1.44,1.6 2.59,1.69c1.69,0.12 1.99,-0.28 1.53,-2c-0.5,-1.92 -0.29,-1.85 1.79,0.56c1.28,1.49 3.32,2.72 4.56,2.72c1.96,0 2.19,-0.38 1.69,-2.91c-0.76,-3.78 1.59,-4.83 4.03,-1.78c1.67,2.08 7.29,3.54 7.31,1.91c0,-0.41 -1.46,-1.94 -3.25,-3.44c-2.49,-2.08 -2.83,-2.73 -1.47,-2.75c0.98,-0.02 2.03,0.61 2.34,1.44c0.32,0.82 0.96,1.28 1.41,1c0.46,-0.29 1.09,-0.06 1.44,0.5c0.34,0.55 1.83,1.03 3.28,1.03c2.52,0 2.55,-0.08 0.69,-1.44c-1.87,-1.38 -1.84,-1.46 0.87,-2.5c1.55,-0.59 3.35,-1.08 4,-1.09c0.65,-0.02 0.06,-0.68 -1.31,-1.44c-2.44,-1.35 -2.41,-1.38 1.37,-1.03c2.46,0.22 4.41,-0.16 5.32,-1.07c2.2,-2.19 0.64,-3.43 -4.32,-3.43c-2.76,0 -4.25,-0.42 -3.87,-1.03c1.26,-2.04 -2.43,-2.08 -6.59,-0.07c-5.1,2.47 -6.05,2.59 -5.29,0.6c0.37,-0.95 -0.01,-1.5 -1,-1.5c-0.98,0 -1.36,-0.56 -1,-1.5c0.68,-1.76 0.33,-1.82 -2.96,-0.57c-2.15,0.82 -2.38,0.69 -1.94,-1c0.52,-2.01 -1.15,-2.71 -2.25,-0.93c-0.35,0.55 -2.46,1.97 -4.72,3.12c-3.63,1.85 -4.56,1.94 -8.13,0.88c-3.32,-1 -3.74,-1.38 -2.34,-2.16c0.94,-0.52 1.72,-1.63 1.72,-2.47c0,-1.18 -1.02,-1.46 -4.53,-1.25c-3.41,0.21 -4.98,-0.21 -6.44,-1.69c-2.19,-2.22 -4.32,-10.144 -2.94,-10.996c0.86,-0.527 1.33,1.604 0.97,4.346c-0.09,0.7 0.79,2.62 1.97,4.28c1.72,2.41 2.44,2.77 3.56,1.84c0.78,-0.64 1.44,-2.33 1.5,-3.78c0.1,-2.08 0.24,-2.21 0.63,-0.62c0.76,3.1 3.35,5.5 5.97,5.5c2.04,0 2.23,-0.28 1.34,-1.94c-1.31,-2.44 -1.31,-3.36 -0.03,-2.56c0.55,0.34 1,0.14 1,-0.44s0.45,-1.06 1,-1.06s1,0.63 1,1.4c0,1.8 5.84,6.79 7.06,6.03c0.51,-0.31 0.94,-1.43 0.94,-2.5c0,-1.06 0.45,-1.93 1.03,-1.93s0.79,-0.57 0.44,-1.25c-0.36,-0.69 0.19,-0.23 1.22,1.03s2.22,1.97 2.62,1.56c0.41,-0.41 1.72,-0.89 2.94,-1.06c2.71,-0.38 6.75,-2.37 6.75,-3.35c0,-0.39 -1.34,-1.26 -2.97,-1.93c-1.63,-0.68 -2.87,-1.75 -2.75,-2.379c0.12,-0.637 -1.15,-1.194 -2.84,-1.25c-3.5,-0.115 -8.59,-2.491 -6.69,-3.125c0.69,-0.228 1.25,-1.064 1.25,-1.843c0,-1.586 -5,-1.991 -6.56,-0.532c-1.51,1.413 -5.44,2.337 -5.44,1.282c0,-0.528 1.14,-1.237 2.56,-1.594c2.13,-0.535 2.37,-0.923 1.38,-2.125c-0.99,-1.189 -0.84,-1.443 0.68,-1.469c2.23,-0.038 5.99,-2.698 5.1,-3.594c-0.35,-0.345 -2.69,-0.843 -5.19,-1.125c-5,-0.564 -4.98,-0.548 -3.5,-3.312c0.96,-1.793 1.2,-1.82 3.41,-0.375c2.22,1.459 2.41,1.409 3.03,-0.531c0.36,-1.141 1.08,-1.816 1.59,-1.5c0.51,0.315 0.94,0.113 0.94,-0.469c0,-0.583 0.9,-1.063 2,-1.063s2,-0.64 2,-1.406c0,-1.529 -2.11,-2.594 -5.09,-2.594c-2.27,0 -2.58,-1.835 -0.44,-2.656c0.82,-0.315 1.28,-0.903 1.03,-1.312c-0.25,-0.41 0.66,-1.33 2.03,-2.063c3.37,-1.804 2.54,-3.469 -1.75,-3.469l-3.53,0l2.53,-3.312c1.97,-2.586 2.24,-3.556 1.28,-4.5c-0.95,-0.941 -1.92,-0.428 -4.5,2.375c-3.06,3.323 -3.37,3.451 -4.44,1.75c-0.63,-1.009 -1.59,-1.813 -2.12,-1.813c-1.19,0 -4.35,5.596 -5.03,8.938c-0.51,2.47 -9.71,10.356 -11.1,9.5c-0.39,-0.244 -0.58,-2.913 -0.46,-5.938c0.12,-3.024 -0.18,-5.5 -0.66,-5.5s-0.73,-1.661 -0.56,-3.687c0.26,-3.074 0.76,-3.819 3.09,-4.438c2.42,-0.641 2.73,-0.498 2.22,1.094c-0.91,2.874 1.53,3.606 3.47,1.031c1.03,-1.361 1.99,-1.872 2.37,-1.25c0.69,1.103 4.66,0.52 4.66,-0.687c0,-0.93 -4.98,-5.587 -5.84,-5.469c-0.37,0.05 -1.45,-0.125 -2.41,-0.375c-2.82,-0.738 -0.99,-2.144 2,-1.531c5.01,1.028 9.53,0.836 9.97,-0.438c0.23,-0.687 -0.23,-1.25 -1.03,-1.25c-0.81,0 -2.01,-0.681 -2.69,-1.5s-1.64,-1.239 -2.13,-0.937c-0.48,0.301 -0.87,0.195 -0.87,-0.25s1.35,-1.713 3,-2.813c3.03,-2.022 3.86,-3.5 1.97,-3.5c-1.82,0 -8.37,3.029 -9.25,4.282c-0.52,0.741 -0.62,0.356 -0.25,-0.969c0.33,-1.191 0.17,-2.43 -0.35,-2.75c-1.08,-0.673 -5.12,5.76 -5.12,8.156c0,0.885 -0.3,1.327 -0.66,0.969c-0.35,-0.358 -1.28,0.108 -2.03,1.062c-1.19,1.512 -1.29,1.103 -0.84,-3.156c0.41,-3.957 1.35,-5.887 5,-10.156c2.48,-2.9 4.53,-5.92 4.53,-6.719c0,-2.403 -5.02,-0.823 -6.06,1.906c-1.65,4.343 -3.47,2.837 -3.1,-2.562c0.28,-3.94 -0.08,-5.428 -1.75,-7.219l-2.09,-2.219zm-6.78,35.094c0.46,0.027 1.54,0.895 2.78,2.281c2.06,2.303 3,4.381 3,6.657c0,1.826 -0.19,3.343 -0.41,3.343c-0.53,0 -1.82,-3.098 -2.28,-5.468c-0.2,-1.072 -1.03,-2.666 -1.84,-3.563s-1.47,-2.257 -1.47,-3c0,-0.186 0.07,-0.259 0.22,-0.25zm-2.44,14.688c1.9,0.139 6.52,3.323 7.25,5.25c1.3,3.426 0.56,4.065 -1.69,1.437c-0.98,-1.152 -2.34,-2.094 -3.03,-2.094c-1.16,0 -3.89,-3.867 -3.15,-4.468c0.14,-0.117 0.35,-0.145 0.62,-0.125zm27.31,8.156c0.24,0.001 0.54,0.044 0.85,0.125c1.65,0.431 1.26,1.025 -2.6,3.969c-2.5,1.907 -5.42,3.546 -6.47,3.625c-1.04,0.078 -1.87,0.473 -1.87,0.906s-0.51,0.812 -1.09,0.812c-0.59,0 -0.93,-1.012 -0.75,-2.25c0.27,-1.947 0.84,-2.22 4.09,-1.937c2.89,0.251 3.75,-0.037 3.75,-1.25c0,-0.867 0.67,-1.563 1.5,-1.563c0.82,0 1.5,-0.632 1.5,-1.406c0,-0.675 0.37,-1.035 1.09,-1.031zm-11.59,14.312l2.34,1.157c1.29,0.627 3.43,0.863 4.75,0.531c1.37,-0.342 2.41,-0.171 2.41,0.406c0,0.561 -0.43,1.031 -0.94,1.031c-0.5,0 -1.56,0.233 -2.34,0.532s-2.49,-0.408 -3.81,-1.563l-2.41,-2.094zm10.97,2.469c0.23,0.034 0.56,0.266 1.03,0.656c1.12,0.928 1.5,0.943 1.5,0.063c0,-0.65 0.49,-0.86 1.12,-0.469c0.8,0.493 0.59,1.129 -0.68,2.063c-2.58,1.883 -3.44,1.679 -3.44,-0.782c0,-1.108 0.09,-1.587 0.47,-1.531zm15.06,3.656c0.86,0 1.31,0.45 0.97,1c-0.8,1.294 -2.5,1.294 -2.5,0c0,-0.55 0.67,-1 1.53,-1zm-23.53,16.004c0.55,0 1,2.25 1,5c0,5.07 -0.15,5.5 -1.34,4.31c-1.07,-1.07 -0.76,-9.31 0.34,-9.31zm-7.63,13.34c0.36,-0.06 0.63,0.16 0.63,0.59c0,0.59 -0.45,1.07 -1,1.07c-1.28,0 -1.28,-0.71 0,-1.5c0.14,-0.09 0.26,-0.14 0.37,-0.16zm8.07,2.13c0.06,-0.01 0.15,0.08 0.22,0.25c0.27,0.67 0.28,2.02 0.03,3c-0.26,0.97 -0.48,0.43 -0.5,-1.22c-0.02,-1.24 0.07,-2.02 0.25,-2.03zm-12.44,0.53c0.55,0 1,0.19 1,0.43c0,0.25 -0.45,0.73 -1,1.07s-1,0.14 -1,-0.44s0.45,-1.06 1,-1.06zm-5,2c0.55,0 1,0.19 1,0.43c0,0.25 -0.45,0.73 -1,1.07s-1,0.14 -1,-0.44s0.45,-1.06 1,-1.06zm-20.81,0.03c0.68,0.06 1.53,0.52 2.18,1.34c2.03,2.56 5.39,2.9 7.25,0.72c1.65,-1.92 4,-1.95 2.82,-0.03c-0.32,0.51 0.11,0.94 0.93,0.94c0.83,0 1.79,-0.45 2.13,-1c0.81,-1.31 2.5,-1.32 2.5,0c0,0.56 -1.24,1.51 -2.75,2.09s-5.32,1.28 -8.44,1.56c-4.96,0.45 -5.8,0.28 -6.75,-1.5c-0.59,-1.11 -1.06,-2.5 -1.06,-3.09c0,-0.76 0.5,-1.1 1.19,-1.03zm91.75,52.97c0.58,0 1.06,0.45 1.06,1c0,1.28 -0.71,1.28 -1.5,0c-0.34,-0.55 -0.15,-1 0.44,-1zm-83.6,12c0.62,0 -0.57,0.9 -2.62,2c-3.63,1.94 -5.72,2.49 -5.72,1.5c0,-0.62 6.87,-3.5 8.34,-3.5zm86.35,42.72c1.1,-0.01 2.19,0.1 2.87,0.37c1.37,0.54 0.7,0.76 -2.31,0.81c-2.34,0.04 -4.25,-0.1 -4.25,-0.31c0,-0.53 1.85,-0.86 3.69,-0.87zm22.37,5.4c0.35,-0.01 0.77,0.04 1.13,0.19c0.8,0.32 0.54,0.54 -0.63,0.59c-1.05,0.05 -1.64,-0.2 -1.31,-0.53c0.17,-0.16 0.47,-0.23 0.81,-0.25zm0.25,24.91c0.05,-0.02 0.12,0 0.19,0c0.55,0 1.67,0.43 2.5,0.97c0.82,0.53 1.05,0.97 0.5,0.97s-1.68,-0.44 -2.5,-0.97c-0.72,-0.47 -1,-0.88 -0.69,-0.97zm-174.19,40.4c0.48,-0.07 0.61,0.14 0.35,0.57c-0.34,0.54 -1.02,1 -1.53,1c-1.44,0 -1.14,-0.75 0.59,-1.41c0.22,-0.09 0.44,-0.13 0.59,-0.16zm16.16,8.6l2.28,2.44l2.25,2.43l1.72,-2.62c1.56,-2.39 1.78,-2.44 2.69,-0.81c0.74,1.33 1.2,1.43 1.78,0.5c0.55,-0.9 0.96,-0.65 1.44,0.87c0.68,2.15 2.56,3.01 2.56,1.16c0,-0.55 1.24,-1.01 2.75,-1l2.75,0l-3,1.59c-1.93,1.02 -4.52,1.39 -7.25,1.09c-2.33,-0.25 -3.99,-0.04 -3.69,0.44c0.79,1.28 -0.7,1.04 -3.78,-0.56c-1.57,-0.82 -2.81,-1 -3,-0.44c-0.18,0.53 -1.14,0.66 -2.12,0.28c-1.66,-0.63 -1.62,-0.84 0.43,-3.03l2.19,-2.34zm23.25,1.09c0.21,0 0.41,0 0.59,0.06c0.75,0.25 0.29,0.71 -1.06,1.07c-1.66,0.43 -2.05,0.3 -1.31,-0.44c0.44,-0.44 1.15,-0.68 1.78,-0.69zm-10.16,41.22c0.36,-0.06 0.63,0.16 0.63,0.59c0,0.59 -0.45,1.07 -1,1.07c-1.28,0 -1.28,-0.71 0,-1.5c0.14,-0.09 0.26,-0.14 0.37,-0.16z" id="svg_7"/>
    </g>
    <metadata transform="translate(64.94575500488281,-40.75027847290039) translate(153.20651245117188,115.44723510742188) matrix(0.8354736566543579,0,0,0.8354736566543579,0,0) ">image/svg+xmlOpenclipart</metadata>
   </g>
  </g>
 </g>
</svg>